<svg version="1.1" id="Layer_1" xmlns="http://www.w3.org/2000/svg" xmlns:xlink="http://www.w3.org/1999/xlink" x="0px" y="0px"
	 width="100%" viewBox="0 0 3000 1800" enable-background="new 0 0 3000 1800" xml:space="preserve">
<path fill="#FFFEFE" opacity="1.000000" stroke="none" 
	d="
M2178.000000,1802.000000 
	C1452.000000,1802.000000 727.000000,1802.000000 2.000000,1802.000000 
	C2.000000,1202.000000 2.000000,602.000000 2.000000,2.000000 
	C1002.000000,2.000000 2002.000000,2.000000 3002.000000,2.000000 
	C3002.000000,602.000000 3002.000000,1202.000000 3002.000000,1802.000000 
	C2727.666748,1802.000000 2453.333252,1802.000000 2178.000000,1802.000000 
M1320.508911,414.321014 
	C1319.037476,416.561523 1317.566040,418.802002 1316.094604,421.042511 
	C1316.697510,421.472778 1317.300415,421.903046 1317.903320,422.333344 
	C1319.278198,420.603088 1320.653076,418.872864 1323.113037,416.543518 
	C1323.622925,415.911285 1324.132812,415.279053 1325.900513,414.160278 
	C1328.458618,412.029205 1331.004517,409.883240 1333.576538,407.769226 
	C1381.973877,367.992065 1437.084839,346.841431 1500.141602,348.381470 
	C1529.267822,349.092804 1557.677734,354.620148 1585.523682,363.091217 
	C1635.563110,378.313873 1681.837158,401.696228 1726.547119,428.402924 
	C1782.685791,461.936523 1835.573242,500.211548 1887.823364,539.405457 
	C1890.664673,541.536865 1893.643555,543.484924 1896.536987,545.503357 
	C1937.520386,516.235962 1977.740845,487.513397 2018.637939,458.307648 
	C2015.154785,455.721985 2012.845337,453.869995 2010.402344,452.215332 
	C1984.202759,434.470642 1958.212280,416.404480 1931.719849,399.107300 
	C1873.649902,361.192963 1814.030396,326.010620 1749.800537,299.313995 
	C1699.374390,278.354675 1647.545166,263.177643 1592.457642,261.265167 
	C1551.234253,259.834045 1511.401245,266.054108 1473.486694,282.493652 
	C1409.681763,310.159149 1362.206421,356.881104 1322.149658,413.202881 
	C1322.149658,413.202881 1321.695679,413.779297 1320.508911,414.321014 
M2727.998779,418.384430 
	C2729.586670,419.600189 2731.174561,420.815948 2732.762207,422.031708 
	C2733.241699,421.571777 2733.721191,421.111847 2734.200684,420.651917 
	C2732.234619,418.362122 2730.268555,416.072296 2727.873291,413.229187 
	C2727.873291,413.229187 2727.267090,412.878876 2726.676270,411.658081 
	C2706.526855,383.296753 2683.842041,357.187195 2657.611572,334.263458 
	C2623.003662,304.018494 2584.191895,281.413696 2539.409180,269.841675 
	C2488.207031,256.610809 2437.076172,259.158478 2386.078125,271.012726 
	C2338.123779,282.159393 2292.926758,300.742767 2249.079346,322.762054 
	C2186.437256,354.219696 2127.266357,391.508698 2069.839844,431.508972 
	C2001.222900,479.303528 1933.305542,528.101013 1864.906006,576.209229 
	C1806.030762,617.618713 1746.195190,657.574646 1682.468018,691.279541 
	C1631.362671,718.308899 1578.581299,740.961304 1521.125732,750.971985 
	C1458.234375,761.929688 1399.118774,753.128357 1344.915039,717.909058 
	C1343.157715,716.767273 1341.137939,716.029419 1338.757812,714.867615 
	C1336.955811,720.343933 1340.611084,722.636292 1342.813599,724.941467 
	C1357.535767,740.350220 1371.756470,756.348511 1387.518677,770.634277 
	C1467.277954,842.922852 1559.707520,868.245850 1665.170410,844.206909 
	C1713.587158,833.171082 1758.876709,814.127380 1802.639038,791.156189 
	C1859.994873,761.049683 1914.000854,725.544678 1965.986816,687.087891 
	C2031.075928,638.937988 2095.354736,589.693848 2160.057373,541.020020 
	C2217.050781,498.145264 2274.794434,456.345337 2336.685791,420.665131 
	C2384.157715,393.297699 2433.339600,369.870178 2486.973877,357.049988 
	C2521.621582,348.768127 2556.606445,345.546936 2592.065186,350.833221 
	C2635.568115,357.318726 2674.205078,375.001038 2708.867676,401.771210 
	C2714.385254,406.032379 2719.865723,410.341614 2725.934326,415.735291 
	C2726.614014,416.204651 2727.293701,416.674011 2727.998779,418.384430 
M2718.643555,707.985901 
	C2716.328369,709.886292 2714.012939,711.786621 2710.939697,715.610535 
	C2712.070068,715.843384 2713.200684,716.076233 2715.548584,715.800659 
	C2717.086426,713.254272 2718.624268,710.707886 2721.035889,708.065979 
	C2721.007812,707.582520 2720.979980,707.098999 2720.952148,706.615601 
	C2720.617188,707.056580 2720.282227,707.497620 2718.643555,707.985901 
M1336.295532,716.826111 
	C1338.914551,716.518494 1339.653076,715.401672 1337.112671,712.042297 
	C1334.522217,710.233337 1331.931641,708.424438 1329.341187,706.615479 
	C1328.953613,707.159241 1328.566162,707.703064 1328.178589,708.246826 
	C1330.530029,710.799377 1332.881470,713.351990 1336.295532,716.826111 
M537.723328,1310.326050 
	C537.708008,1237.810303 537.692688,1165.294678 539.557129,1092.397949 
	C543.554321,1092.376587 547.551575,1092.336670 551.548767,1092.336548 
	C705.786377,1092.333130 860.024109,1092.371948 1014.261597,1092.248779 
	C1024.881714,1092.240234 1035.600586,1091.736816 1046.104736,1090.261841 
	C1137.879761,1077.374878 1207.466919,998.105713 1208.261475,905.566528 
	C1208.573242,869.258362 1208.336304,832.945374 1208.307007,796.634583 
	C1208.304932,794.093323 1207.951660,791.552307 1207.710205,788.323364 
	C1203.108276,788.323364 1199.166016,788.323364 1195.223877,788.323364 
	C980.024109,788.323364 764.824280,788.325623 549.624512,788.305115 
	C545.639587,788.304749 541.654602,788.033752 537.669495,786.031311 
	C537.669556,716.888916 537.662964,647.746582 537.688354,578.604187 
	C537.689697,574.960083 537.962891,571.316101 539.970093,567.674255 
	C697.548157,567.675049 855.126343,567.719299 1012.704285,567.585205 
	C1023.997620,567.575623 1035.429077,567.151794 1046.561035,565.413696 
	C1146.310425,549.838867 1209.330444,464.412231 1208.385132,377.112885 
	C1208.009888,342.469788 1208.326416,307.819153 1208.328003,273.171967 
	C1208.328125,270.279602 1208.328125,267.387268 1208.328125,263.669983 
	C1203.374146,263.669983 1199.447632,263.669983 1195.521240,263.669983 
	C926.339172,263.669678 657.157043,263.668945 387.974976,263.673309 
	C384.310822,263.673370 380.637451,263.602264 376.988129,263.852631 
	C375.875305,263.928955 374.828766,264.972076 372.081909,265.774261 
	C366.241119,265.083069 360.403503,263.826019 354.559052,263.793396 
	C319.235107,263.596283 283.907471,263.897156 248.585754,263.552002 
	C235.957092,263.428619 232.875397,266.664642 233.671844,278.587982 
	C233.716171,279.251556 233.678024,279.920654 233.678024,280.587158 
	C233.678848,504.201141 233.676468,727.815125 233.698425,951.429077 
	C233.698990,957.088562 233.967163,962.748108 233.964142,970.226135 
	C233.866577,994.389282 233.690903,1018.552429 233.698471,1042.715576 
	C233.703659,1059.253418 233.964127,1075.791382 233.769669,1094.130005 
	C233.739685,1095.128784 233.683456,1096.127563 233.683426,1097.126343 
	C233.678345,1263.698364 233.677231,1430.270264 233.676880,1596.842285 
	C233.676880,1598.507935 233.588531,1600.181274 233.712997,1601.838013 
	C234.287277,1609.482544 239.155304,1614.889771 246.730850,1615.901978 
	C250.010208,1616.339966 253.380981,1616.150024 256.710236,1616.150391 
	C346.992218,1616.160889 437.274231,1616.162476 527.556213,1616.145020 
	C530.880310,1616.144409 534.204468,1615.935913 539.428589,1616.216309 
	C700.717834,1616.236084 862.007019,1616.284668 1023.296204,1616.189087 
	C1031.250000,1616.184326 1039.251343,1615.272339 1047.149170,1614.189575 
	C1135.864502,1602.025513 1206.552490,1522.884155 1208.129395,1433.383667 
	C1208.798706,1395.405518 1208.294800,1357.406250 1208.260620,1319.416626 
	C1208.258667,1317.231934 1207.683594,1315.047852 1207.296143,1312.301758 
	C1202.761597,1312.301758 1198.804810,1312.301880 1194.848022,1312.301880 
	C1054.885620,1312.301880 914.923279,1312.311646 774.960938,1312.298096 
	C695.982666,1312.290527 617.004395,1312.244507 537.723328,1310.326050 
M1874.435791,1296.243042 
	C1887.860352,1305.046631 1895.230713,1317.471313 1896.563721,1333.446655 
	C1896.922974,1337.752686 1897.210815,1342.080566 1897.212769,1346.398560 
	C1897.250244,1432.386597 1897.240845,1518.374756 1897.240845,1604.362793 
	C1897.240845,1607.947144 1897.240723,1611.531372 1897.240723,1615.588379 
	C1961.218506,1615.588379 2024.350464,1615.588379 2088.330078,1615.588379 
	C2088.330078,1611.577026 2088.330078,1607.992554 2088.330078,1604.408081 
	C2088.330078,1518.753296 2088.329834,1433.098511 2088.331543,1347.443726 
	C2088.331543,1344.444336 2088.269531,1341.441772 2088.379639,1338.445923 
	C2089.418945,1310.142700 2105.386230,1292.506348 2133.347656,1288.733765 
	C2161.042725,1284.997070 2185.465088,1300.624634 2191.105957,1326.323730 
	C2192.658203,1333.393677 2192.743896,1340.882324 2192.752930,1348.179688 
	C2192.857666,1433.834351 2192.815430,1519.489136 2192.833252,1605.143921 
	C2192.833984,1608.651123 2193.045166,1612.158447 2193.147217,1615.319580 
	C2257.463623,1615.319580 2320.592773,1615.319580 2383.806885,1615.319580 
	C2383.919434,1613.257446 2384.054443,1611.939087 2384.054443,1610.620850 
	C2384.061768,1516.633911 2384.054199,1422.646851 2384.059814,1328.659912 
	C2384.061035,1309.604736 2382.360840,1290.682861 2377.849121,1272.186523 
	C2360.944824,1202.883057 2319.455811,1155.984009 2250.581787,1135.044067 
	C2220.588623,1125.925171 2189.736328,1124.446167 2158.568604,1127.843262 
	C2116.478760,1132.430786 2078.435791,1146.677612 2045.648926,1173.936890 
	C2043.626831,1175.618164 2041.532104,1177.212158 2039.302368,1178.980835 
	C2036.637939,1176.507690 2034.220947,1174.254761 2031.794189,1172.012939 
	C2014.196289,1155.756470 1994.418701,1142.858032 1971.463989,1135.809326 
	C1912.195068,1117.609131 1855.746948,1125.287476 1802.041138,1155.602295 
	C1799.317017,1157.139893 1796.547729,1158.597778 1792.501465,1160.798706 
	C1792.501465,1151.750977 1792.501465,1144.270020 1792.501465,1136.690674 
	C1728.481689,1136.690674 1665.354858,1136.690674 1602.352295,1136.690674 
	C1602.352295,1296.737427 1602.352295,1456.176514 1602.352295,1615.348999 
	C1666.154541,1615.348999 1729.270020,1615.348999 1792.759277,1615.348999 
	C1792.759277,1610.974243 1792.759277,1607.317383 1792.759277,1603.660522 
	C1792.759277,1517.672485 1792.741577,1431.684326 1792.802368,1345.696289 
	C1792.806152,1340.386108 1793.086182,1335.028564 1793.822998,1329.775146 
	C1796.664185,1309.517700 1808.274414,1296.478638 1827.716309,1290.860474 
	C1843.309570,1286.354370 1858.683960,1287.245239 1874.435791,1296.243042 
M2465.614014,1615.757446 
	C2466.606689,1615.857788 2467.599365,1616.045654 2468.592041,1616.046021 
	C2528.919434,1616.064331 2589.246582,1616.073730 2649.573975,1616.041748 
	C2651.439941,1616.040771 2653.305908,1615.594849 2655.210205,1615.351440 
	C2655.210205,1455.491089 2655.210205,1296.309814 2655.210205,1136.795288 
	C2591.357910,1136.795288 2527.968018,1136.795288 2464.085938,1136.795288 
	C2464.085938,1140.475098 2464.086182,1143.442139 2464.086182,1146.409180 
	C2464.086426,1299.727295 2464.085205,1453.045410 2464.096191,1606.363525 
	C2464.096436,1609.026001 2464.241943,1611.688599 2465.614014,1615.757446 
M1510.756470,1417.000488 
	C1510.756470,1323.566895 1510.756470,1230.133179 1510.756470,1136.747192 
	C1446.277222,1136.747192 1383.187988,1136.747192 1320.317871,1136.747192 
	C1320.317871,1296.787842 1320.317871,1456.166626 1320.317871,1615.439453 
	C1384.083252,1615.439453 1447.200195,1615.439453 1510.756470,1615.439453 
	C1510.756470,1549.541504 1510.756470,1484.271118 1510.756470,1417.000488 
M2131.943604,570.932861 
	C2098.470947,596.496338 2064.998291,622.059753 2031.066650,647.973816 
	C2033.527588,649.947388 2034.770630,651.044861 2036.111938,652.004944 
	C2070.787354,676.824707 2105.073242,702.214111 2140.252930,726.297729 
	C2189.785889,760.207458 2241.263916,790.896545 2296.540039,814.733032 
	C2345.180664,835.708130 2395.297852,850.686157 2448.740479,852.699097 
	C2499.496338,854.610962 2547.328857,844.125977 2592.207764,820.355469 
	C2637.652344,796.285278 2675.116699,762.588684 2708.283691,723.750305 
	C2709.578857,722.234070 2711.189209,720.759338 2711.813477,718.972107 
	C2712.290283,717.607727 2711.437500,715.778809 2710.989746,713.000732 
	C2708.964844,714.691711 2708.055664,715.506470 2707.088379,716.245300 
	C2705.768311,717.253540 2704.449219,718.274048 2703.052979,719.169556 
	C2661.624512,745.734863 2616.142578,757.253784 2567.181885,755.201233 
	C2536.050049,753.896118 2505.797119,747.452637 2476.152588,738.047791 
	C2422.498291,721.025879 2372.791992,695.524841 2324.444580,667.156677 
	C2268.646240,634.416443 2215.430664,597.746094 2162.614014,560.475464 
	C2159.690186,558.412170 2156.655762,556.505676 2153.626709,554.495361 
	C2146.336426,560.014343 2139.704834,565.034729 2131.943604,570.932861 
M1274.619263,551.697388 
	C1273.375977,574.638428 1276.862427,596.886047 1285.031494,618.309937 
	C1300.690796,659.377625 1328.834351,690.097900 1365.078857,714.004150 
	C1407.274780,741.835876 1452.990967,754.569336 1503.610352,746.458618 
	C1506.959106,745.921997 1510.365112,745.741760 1514.171753,745.352051 
	C1513.361328,744.019836 1513.258667,743.598999 1513.025879,743.506714 
	C1509.955322,742.289307 1506.882080,741.074768 1503.779541,739.942017 
	C1464.914185,725.752502 1430.902710,704.296692 1403.679199,672.791931 
	C1348.083252,608.452942 1345.931519,522.293396 1398.518066,455.534546 
	C1426.085815,420.537048 1461.990112,397.000183 1503.663696,382.266144 
	C1519.386719,376.707153 1535.756470,372.977417 1551.972900,368.373627 
	C1550.039062,368.033997 1548.094238,367.674103 1546.142700,367.354767 
	C1544.170898,367.032074 1542.202271,366.611115 1540.215332,366.469604 
	C1486.297607,362.630035 1434.385498,370.325226 1386.287354,395.897644 
	C1324.211792,428.901245 1282.218872,477.016815 1274.619263,551.697388 
M2762.531494,502.572693 
	C2749.617432,469.000427 2728.080566,441.844452 2699.792480,420.111938 
	C2642.517822,376.110382 2576.937744,361.496338 2506.021484,366.595520 
	C2502.652100,366.837799 2499.331299,367.750458 2493.840820,368.736511 
	C2503.285400,370.831787 2510.465820,372.224548 2517.541992,374.026855 
	C2567.195801,386.673370 2610.488281,410.195068 2644.369385,449.313141 
	C2671.969238,481.179230 2687.356689,518.200745 2687.485352,560.539978 
	C2687.614258,602.888489 2672.352783,639.947815 2644.977783,671.999573 
	C2617.708740,703.927002 2583.460449,725.668884 2544.228516,739.970581 
	C2541.155762,741.090759 2537.318115,741.129700 2534.678711,745.068970 
	C2540.901611,745.863159 2546.119873,746.791687 2551.376953,747.153992 
	C2572.332031,748.597961 2593.628662,750.855286 2614.015381,745.065430 
	C2660.545166,731.851013 2701.250977,708.336304 2732.172363,670.488403 
	C2772.703613,620.878113 2784.718994,565.422791 2762.531494,502.572693 
M2518.025635,900.692078 
	C2510.542725,905.620972 2502.327393,909.726990 2495.703125,915.621033 
	C2467.129150,941.044495 2457.553955,973.468689 2463.763428,1010.502136 
	C2469.804199,1046.528564 2490.200195,1072.623901 2524.404785,1085.025757 
	C2559.046631,1097.586304 2592.963623,1093.859985 2622.265869,1069.612671 
	C2647.907715,1048.394165 2658.337891,1020.008545 2657.143311,987.160645 
	C2655.489014,941.669434 2627.005127,905.253479 2585.027588,895.118103 
	C2562.711426,889.729919 2540.755127,891.273621 2518.025635,900.692078 
M1374.157593,1083.053101 
	C1386.140015,1088.632568 1398.919434,1091.008789 1411.959961,1091.309326 
	C1438.988281,1091.932251 1463.208618,1084.524658 1482.942871,1065.059570 
	C1504.981689,1043.321167 1513.823242,1016.742554 1512.518311,986.238647 
	C1509.194092,908.525085 1430.872559,870.449951 1368.063110,903.947632 
	C1332.957520,922.670349 1316.933594,954.347107 1317.751587,994.013184 
	C1318.580078,1034.187500 1337.112183,1063.716797 1374.157593,1083.053101 
M1463.107666,596.216431 
	C1461.912109,597.467163 1459.832153,598.622925 1459.685669,599.986389 
	C1459.234253,604.191772 1459.520996,608.476440 1459.520996,612.639954 
	C1461.223755,613.175293 1462.139771,613.711914 1463.057617,613.715149 
	C1480.351196,613.775757 1497.645752,613.862915 1514.937866,613.704773 
	C1518.208862,613.674927 1521.557373,612.913818 1524.720825,611.982483 
	C1536.078003,608.639282 1542.561646,600.995117 1544.135132,589.223938 
	C1546.087280,574.620056 1541.425049,563.036316 1528.321411,555.346985 
	C1529.113159,554.333740 1529.642578,553.536743 1530.293701,552.855774 
	C1530.979736,552.138000 1531.854126,551.597046 1532.522339,550.865662 
	C1540.727051,541.885803 1542.355225,531.426514 1538.534058,520.250488 
	C1534.663452,508.929779 1525.094482,505.443329 1514.310669,504.166718 
	C1512.995483,504.011017 1511.653320,504.055847 1510.323608,504.054962 
	C1495.689697,504.045197 1481.055664,504.008148 1466.422241,504.081604 
	C1464.241699,504.092560 1462.063843,504.635437 1460.053467,504.909241 
	C1460.053467,510.784851 1460.053467,515.982605 1460.053467,521.304260 
	C1464.041382,521.862366 1467.471069,522.342407 1471.462158,522.901001 
	C1471.462158,545.458130 1471.472412,567.365601 1471.444092,589.273132 
	C1471.441528,591.210876 1471.186890,593.148438 1471.017212,595.537842 
	C1468.723511,595.780090 1466.823608,595.980713 1463.107666,596.216431 
M1640.693237,579.637390 
	C1640.846802,560.481689 1641.000488,541.325989 1641.152954,522.300476 
	C1645.682129,521.797913 1648.877197,521.443359 1652.359253,521.056946 
	C1652.359253,515.317505 1652.359253,510.132080 1652.359253,505.031738 
	C1640.343872,503.282837 1617.447998,503.667023 1610.569946,505.653625 
	C1610.569946,510.567413 1610.569946,515.489258 1610.569946,520.956909 
	C1613.671753,521.435791 1616.478271,521.869080 1619.817993,522.384705 
	C1619.817993,541.255249 1619.842896,559.850586 1619.774414,578.445618 
	C1619.768433,580.071594 1619.290649,581.740051 1618.791626,583.312500 
	C1616.260498,591.288574 1610.231567,595.695312 1601.599121,595.987366 
	C1593.570190,596.258972 1588.188599,592.402771 1585.429565,583.931763 
	C1584.519653,581.138123 1584.042358,578.081238 1584.022461,575.140381 
	C1583.909790,558.485229 1583.983276,541.828613 1584.048218,525.172729 
	C1584.051880,524.237000 1584.541748,523.303101 1584.801025,522.383423 
	C1587.767700,521.854675 1590.592529,521.351257 1593.314697,520.866089 
	C1593.314697,515.109375 1593.314697,509.962799 1593.314697,504.508911 
	C1579.172729,504.508911 1565.673218,504.508911 1551.873291,504.508911 
	C1551.873291,510.413574 1551.873291,515.834045 1551.873291,521.161072 
	C1555.883057,521.613403 1559.095825,521.975830 1563.082153,522.425476 
	C1563.082153,526.195923 1563.081543,529.454285 1563.082275,532.712646 
	C1563.085938,548.036682 1563.041382,563.361023 1563.109375,578.684753 
	C1563.164062,591.009216 1567.168335,601.656738 1577.371582,609.145386 
	C1602.133179,627.318848 1637.277222,611.820496 1640.693237,579.637390 
M2422.926758,504.033661 
	C2402.696289,504.033661 2382.465820,504.033661 2361.771484,504.033661 
	C2361.771484,510.383942 2361.771484,515.772766 2361.771484,521.033264 
	C2365.825684,521.617615 2369.009521,522.076477 2372.151367,522.529358 
	C2372.151367,547.275391 2372.151367,571.371460 2372.151367,595.554504 
	C2368.246582,596.047485 2365.069824,596.448547 2361.590332,596.887817 
	C2361.590332,602.612183 2361.590332,607.760742 2361.590332,613.160889 
	C2388.702637,613.160889 2415.124268,613.160889 2441.638672,613.160889 
	C2441.638672,602.018372 2441.638672,591.562317 2441.638672,580.837402 
	C2434.773682,580.837402 2428.608887,580.837402 2422.160889,580.837402 
	C2421.655762,585.835693 2421.203857,590.306885 2420.678223,595.508606 
	C2415.614258,595.508606 2411.341309,595.538818 2407.068604,595.500061 
	C2402.881836,595.462097 2398.695801,595.353882 2394.541504,595.277161 
	C2394.541504,585.071716 2394.541504,576.216797 2394.541504,566.031982 
	C2405.163574,566.031982 2415.242188,566.031982 2424.976074,566.031982 
	C2424.976074,559.890686 2424.976074,555.116577 2424.976074,549.389587 
	C2414.292969,549.389587 2404.459473,549.389587 2394.795898,549.389587 
	C2394.795898,539.968933 2394.795898,531.545227 2394.795898,522.828064 
	C2404.090820,522.551086 2412.553711,521.885742 2420.842529,523.169983 
	C2421.415527,528.473022 2421.863770,532.622803 2422.304932,536.706177 
	C2429.311035,536.706177 2435.465332,536.706177 2442.303955,536.706177 
	C2442.128906,525.547241 2442.883301,515.077087 2441.716553,504.033691 
	C2435.467285,504.033691 2430.184814,504.033691 2422.926758,504.033661 
M2338.997314,555.818176 
	C2335.578857,554.517090 2332.127197,553.296692 2328.749512,551.896973 
	C2322.923340,549.482422 2316.832031,547.492249 2311.417725,544.349426 
	C2303.673584,539.854431 2301.798340,532.817627 2305.774414,526.748657 
	C2310.354980,519.757019 2318.822266,517.671143 2325.758057,522.746094 
	C2329.250732,525.301575 2331.489258,529.570740 2334.733643,533.611206 
	C2339.523438,533.611206 2345.313232,533.611206 2351.050781,533.611206 
	C2351.050781,523.424194 2351.050781,513.992188 2351.050781,504.305756 
	C2344.508301,504.445862 2338.152100,501.711395 2334.021240,508.513824 
	C2325.055420,502.712372 2315.481934,501.263519 2305.302490,504.106140 
	C2293.646729,507.360962 2284.734863,518.118164 2283.654541,530.122559 
	C2282.339844,544.734619 2287.390381,553.928162 2300.272461,559.909546 
	C2307.511230,563.270691 2314.954346,566.197083 2322.146973,569.649292 
	C2325.395752,571.208557 2328.717041,573.121704 2331.208252,575.657471 
	C2338.266846,582.842407 2335.215332,594.133057 2325.654541,597.303589 
	C2315.782471,600.577393 2308.601807,597.264648 2304.845947,587.705017 
	C2304.026367,585.618347 2303.201172,583.533813 2302.458008,581.650146 
	C2296.039062,581.650146 2290.243896,581.650146 2284.511230,581.650146 
	C2284.511230,592.615723 2284.511230,602.790527 2284.511230,613.419128 
	C2291.073486,613.541626 2297.310303,616.072144 2302.210449,609.848511 
	C2312.697754,617.696899 2324.159424,617.632202 2335.563721,613.572693 
	C2348.498535,608.968323 2354.633057,598.808472 2356.093262,585.443115 
	C2357.553711,572.072815 2353.327881,561.876221 2338.997314,555.818176 
M1754.065796,504.032898 
	C1747.738770,504.030701 1741.411377,503.994934 1735.084717,504.035919 
	C1728.909424,504.075958 1722.734863,504.194366 1716.828857,504.274750 
	C1716.828857,510.817383 1716.828857,516.006653 1716.828857,521.115112 
	C1720.211548,521.643494 1722.938232,522.069458 1726.355225,522.603210 
	C1720.349243,534.212952 1714.873291,544.797974 1708.650757,556.826233 
	C1702.587891,544.834534 1697.109009,533.997742 1691.307983,522.523804 
	C1694.761719,521.926880 1697.207153,521.504211 1699.896973,521.039307 
	C1699.896973,515.403931 1699.896973,510.221985 1699.896973,504.550629 
	C1685.962036,504.550629 1672.501221,504.550629 1658.800659,504.550629 
	C1658.800659,510.493073 1658.800659,515.890259 1658.800659,521.269348 
	C1662.843872,521.648499 1666.124268,521.956116 1669.514404,522.274048 
	C1677.651978,537.382568 1685.312622,552.543274 1693.879028,567.173767 
	C1699.385010,576.577271 1698.057983,586.009399 1697.494385,595.650635 
	C1693.346924,596.083130 1690.133301,596.418274 1686.724121,596.773804 
	C1686.724121,602.567261 1686.724121,607.715088 1686.724121,613.345093 
	C1701.433350,613.345093 1715.586426,613.345093 1730.202637,613.345093 
	C1730.202637,607.548279 1730.202637,602.115784 1730.202637,596.652649 
	C1726.256714,596.246582 1723.036621,595.915161 1718.550903,595.453491 
	C1719.140381,587.770752 1717.757935,579.720276 1720.601685,573.649597 
	C1728.890381,555.955566 1738.868652,539.052917 1747.910645,522.346069 
	C1752.027466,521.799438 1755.181396,521.380676 1758.834229,520.895630 
	C1758.834229,515.977783 1759.045288,511.669434 1758.697266,507.406738 
	C1758.601074,506.230103 1756.839111,505.189484 1754.065796,504.032898 
M2534.583496,597.909546 
	C2534.583496,603.047974 2534.583496,608.186340 2534.583496,613.202637 
	C2561.649902,613.202637 2587.469482,613.202637 2613.489258,613.202637 
	C2613.489258,602.070251 2613.489258,591.611206 2613.489258,580.701965 
	C2606.650391,580.701965 2600.466553,580.701965 2593.805176,580.701965 
	C2593.197021,585.189758 2592.636963,589.325439 2592.067871,593.525635 
	C2583.748779,593.525635 2575.951416,593.525635 2568.144531,593.525635 
	C2568.144531,569.335876 2568.144531,545.869751 2568.144531,522.321533 
	C2572.033691,521.876892 2575.238281,521.510559 2578.885986,521.093567 
	C2578.885986,515.438232 2578.885986,510.292236 2578.885986,504.638580 
	C2563.904785,504.638580 2549.483643,504.638580 2534.707275,504.638580 
	C2534.707275,510.426117 2534.707275,515.570496 2534.707275,521.101318 
	C2538.675781,521.595398 2542.128662,522.025330 2545.420898,522.435242 
	C2545.420898,547.366516 2545.420898,571.501770 2545.420898,595.642395 
	C2541.746582,596.017578 2538.778320,596.320618 2534.583496,597.909546 
M2504.953857,613.843628 
	C2512.440186,613.733704 2519.926514,613.623840 2527.899414,613.506775 
	C2527.560791,601.618469 2528.345947,591.119141 2527.481934,581.138489 
	C2519.630859,581.138489 2513.176270,581.138489 2506.787598,581.138489 
	C2506.358887,585.869202 2506.009033,589.730347 2505.652588,593.663757 
	C2497.123779,593.663757 2489.309814,593.663757 2481.056152,593.663757 
	C2481.056152,569.587830 2481.056152,546.115662 2481.056152,522.542236 
	C2485.061768,521.901917 2488.534424,521.346802 2491.710449,520.839111 
	C2491.710449,514.984619 2491.710449,509.848755 2491.710449,504.745728 
	C2476.787598,504.745728 2462.660889,504.745728 2448.560303,504.745728 
	C2448.560303,510.632324 2448.560303,515.786377 2448.560303,521.159363 
	C2452.421875,521.578613 2455.635986,521.927551 2459.344238,522.330139 
	C2459.344238,546.815674 2459.344238,570.952698 2459.344238,595.400574 
	C2455.457520,595.965149 2451.993408,596.468262 2448.557129,596.967407 
	C2448.557129,602.724487 2448.557129,607.862000 2448.557129,612.711304 
	C2449.834473,613.208984 2450.432861,613.643921 2451.033691,613.647095 
	C2468.345703,613.739075 2485.657959,613.787842 2504.953857,613.843628 
z"/>
<path fill="#060606" opacity="1.000000" stroke="none" 
	d="
M1873.781738,1295.887207 
	C1858.683960,1287.245239 1843.309570,1286.354370 1827.716309,1290.860474 
	C1808.274414,1296.478638 1796.664185,1309.517700 1793.822998,1329.775146 
	C1793.086182,1335.028564 1792.806152,1340.386108 1792.802368,1345.696289 
	C1792.741577,1431.684326 1792.759277,1517.672485 1792.759277,1603.660522 
	C1792.759277,1607.317383 1792.759277,1610.974243 1792.759277,1615.348999 
	C1729.270020,1615.348999 1666.154541,1615.348999 1602.352295,1615.348999 
	C1602.352295,1456.176514 1602.352295,1296.737427 1602.352295,1136.690674 
	C1665.354858,1136.690674 1728.481689,1136.690674 1792.501465,1136.690674 
	C1792.501465,1144.270020 1792.501465,1151.750977 1792.501465,1160.798706 
	C1796.547729,1158.597778 1799.317017,1157.139893 1802.041138,1155.602295 
	C1855.746948,1125.287476 1912.195068,1117.609131 1971.463989,1135.809326 
	C1994.418701,1142.858032 2014.196289,1155.756470 2031.794189,1172.012939 
	C2034.220947,1174.254761 2036.637939,1176.507690 2039.302368,1178.980835 
	C2041.532104,1177.212158 2043.626831,1175.618164 2045.648926,1173.936890 
	C2078.435791,1146.677612 2116.478760,1132.430786 2158.568604,1127.843262 
	C2189.736328,1124.446167 2220.588623,1125.925171 2250.581787,1135.044067 
	C2319.455811,1155.984009 2360.944824,1202.883057 2377.849121,1272.186523 
	C2382.360840,1290.682861 2384.061035,1309.604736 2384.059814,1328.659912 
	C2384.054199,1422.646851 2384.061768,1516.633911 2384.054443,1610.620850 
	C2384.054443,1611.939087 2383.919434,1613.257446 2383.806885,1615.319580 
	C2320.592773,1615.319580 2257.463623,1615.319580 2193.147217,1615.319580 
	C2193.045166,1612.158447 2192.833984,1608.651123 2192.833252,1605.143921 
	C2192.815430,1519.489136 2192.857666,1433.834351 2192.752930,1348.179688 
	C2192.743896,1340.882324 2192.658203,1333.393677 2191.105957,1326.323730 
	C2185.465088,1300.624634 2161.042725,1284.997070 2133.347656,1288.733765 
	C2105.386230,1292.506348 2089.418945,1310.142700 2088.379639,1338.445923 
	C2088.269531,1341.441772 2088.331543,1344.444336 2088.331543,1347.443726 
	C2088.329834,1433.098511 2088.330078,1518.753296 2088.330078,1604.408081 
	C2088.330078,1607.992554 2088.330078,1611.577026 2088.330078,1615.588379 
	C2024.350464,1615.588379 1961.218506,1615.588379 1897.240723,1615.588379 
	C1897.240723,1611.531372 1897.240845,1607.947144 1897.240845,1604.362793 
	C1897.240845,1518.374756 1897.250244,1432.386597 1897.212769,1346.398560 
	C1897.210815,1342.080566 1896.922974,1337.752686 1896.563721,1333.446655 
	C1895.230713,1317.471313 1887.860352,1305.046631 1873.781738,1295.887207 
z"/>
<path fill="#019048" opacity="1.000000" stroke="none" 
	d="
M234.110474,1092.329224 
	C233.964127,1075.791382 233.703659,1059.253418 233.698471,1042.715576 
	C233.690903,1018.552429 233.866577,994.389282 234.440903,968.607910 
	C235.083344,966.345337 235.300079,965.709290 235.407410,965.055359 
	C249.265274,880.616028 296.978180,824.792847 377.781342,797.283813 
	C397.128723,790.697083 417.354950,788.437744 437.776306,788.325684 
	C471.073914,788.142944 504.371857,788.030884 537.669678,787.888916 
	C541.654602,788.033752 545.639587,788.304749 549.624512,788.305115 
	C764.824280,788.325623 980.024109,788.323364 1195.223877,788.323364 
	C1199.166016,788.323364 1203.108276,788.323364 1207.710205,788.323364 
	C1207.951660,791.552307 1208.304932,794.093323 1208.307007,796.634583 
	C1208.336304,832.945374 1208.573242,869.258362 1208.261475,905.566528 
	C1207.466919,998.105713 1137.879761,1077.374878 1046.104736,1090.261841 
	C1035.600586,1091.736816 1024.881714,1092.240234 1014.261597,1092.248779 
	C860.024109,1092.371948 705.786377,1092.333130 551.548767,1092.336548 
	C547.551575,1092.336670 543.554321,1092.376587 537.718872,1092.420532 
	C435.290558,1092.405151 334.700531,1092.367188 234.110474,1092.329224 
z"/>
<path fill="#0154A5" opacity="1.000000" stroke="none" 
	d="
M373.751892,265.572449 
	C374.828766,264.972076 375.875305,263.928955 376.988129,263.852631 
	C380.637451,263.602264 384.310822,263.673370 387.974976,263.673309 
	C657.157043,263.668945 926.339172,263.669678 1195.521240,263.669983 
	C1199.447632,263.669983 1203.374146,263.669983 1208.328125,263.669983 
	C1208.328125,267.387268 1208.328125,270.279602 1208.328003,273.171967 
	C1208.326416,307.819153 1208.009888,342.469788 1208.385132,377.112885 
	C1209.330444,464.412231 1146.310425,549.838867 1046.561035,565.413696 
	C1035.429077,567.151794 1023.997620,567.575623 1012.704285,567.585205 
	C855.126343,567.719299 697.548157,567.675049 538.888672,566.768799 
	C537.760559,528.234436 537.918884,490.603912 537.604736,452.977295 
	C537.336121,420.796997 530.029053,390.183960 514.000122,362.168488 
	C482.787659,307.615234 436.145538,275.056976 373.751892,265.572449 
z"/>
<path fill="#F7941D" opacity="1.000000" stroke="none" 
	d="
M538.026123,1312.215942 
	C617.004395,1312.244507 695.982666,1312.290527 774.960938,1312.298096 
	C914.923279,1312.311646 1054.885620,1312.301880 1194.848022,1312.301880 
	C1198.804810,1312.301880 1202.761597,1312.301758 1207.296143,1312.301758 
	C1207.683594,1315.047852 1208.258667,1317.231934 1208.260620,1319.416626 
	C1208.294800,1357.406250 1208.798706,1395.405518 1208.129395,1433.383667 
	C1206.552490,1522.884155 1135.864502,1602.025513 1047.149170,1614.189575 
	C1039.251343,1615.272339 1031.250000,1616.184326 1023.296204,1616.189087 
	C862.007019,1616.284668 700.717834,1616.236084 538.583252,1615.096924 
	C537.776550,1554.356689 537.803711,1494.735840 537.857605,1435.114990 
	C537.894592,1394.148682 537.968628,1353.182251 538.026123,1312.215942 
z"/>
<path fill="#FE0101" opacity="1.000000" stroke="none" 
	d="
M2725.363281,414.628540 
	C2719.865723,410.341614 2714.385254,406.032379 2708.867676,401.771210 
	C2674.205078,375.001038 2635.568115,357.318726 2592.065186,350.833221 
	C2556.606445,345.546936 2521.621582,348.768127 2486.973877,357.049988 
	C2433.339600,369.870178 2384.157715,393.297699 2336.685791,420.665131 
	C2274.794434,456.345337 2217.050781,498.145264 2160.057373,541.020020 
	C2095.354736,589.693848 2031.075928,638.937988 1965.986816,687.087891 
	C1914.000854,725.544678 1859.994873,761.049683 1802.639038,791.156189 
	C1758.876709,814.127380 1713.587158,833.171082 1665.170410,844.206909 
	C1559.707520,868.245850 1467.277954,842.922852 1387.518677,770.634277 
	C1371.756470,756.348511 1357.535767,740.350220 1342.813599,724.941467 
	C1340.611084,722.636292 1336.955811,720.343933 1338.757812,714.867615 
	C1341.137939,716.029419 1343.157715,716.767273 1344.915039,717.909058 
	C1399.118774,753.128357 1458.234375,761.929688 1521.125732,750.971985 
	C1578.581299,740.961304 1631.362671,718.308899 1682.468018,691.279541 
	C1746.195190,657.574646 1806.030762,617.618713 1864.906006,576.209229 
	C1933.305542,528.101013 2001.222900,479.303528 2069.839844,431.508972 
	C2127.266357,391.508698 2186.437256,354.219696 2249.079346,322.762054 
	C2292.926758,300.742767 2338.123779,282.159393 2386.078125,271.012726 
	C2437.076172,259.158478 2488.207031,256.610809 2539.409180,269.841675 
	C2584.191895,281.413696 2623.003662,304.018494 2657.611572,334.263458 
	C2683.842041,357.187195 2706.526855,383.296753 2726.484863,412.694794 
	C2725.983398,414.030548 2725.673340,414.329559 2725.363281,414.628540 
z"/>
<path fill="#ED1B24" opacity="1.000000" stroke="none" 
	d="
M372.916901,265.673340 
	C436.145538,275.056976 482.787659,307.615234 514.000122,362.168488 
	C530.029053,390.183960 537.336121,420.796997 537.604736,452.977295 
	C537.918884,490.603912 537.760559,528.234436 537.958374,566.767700 
	C537.962891,571.316101 537.689697,574.960083 537.688354,578.604187 
	C537.662964,647.746582 537.669556,716.888916 537.669556,786.960144 
	C504.371857,788.030884 471.073914,788.142944 437.776306,788.325684 
	C417.354950,788.437744 397.128723,790.697083 377.781342,797.283813 
	C296.978180,824.792847 249.265274,880.616028 235.407410,965.055359 
	C235.300079,965.709290 235.083344,966.345337 234.514099,967.698608 
	C233.967163,962.748108 233.698990,957.088562 233.698425,951.429077 
	C233.676468,727.815125 233.678848,504.201141 233.678024,280.587158 
	C233.678024,279.920654 233.716171,279.251556 233.671844,278.587982 
	C232.875397,266.664642 235.957092,263.428619 248.585754,263.552002 
	C283.907471,263.897156 319.235107,263.596283 354.559052,263.793396 
	C360.403503,263.826019 366.241119,265.083069 372.916901,265.673340 
z"/>
<path fill="#ED1C24" opacity="1.000000" stroke="none" 
	d="
M537.874756,1311.270996 
	C537.968628,1353.182251 537.894592,1394.148682 537.857605,1435.114990 
	C537.803711,1494.735840 537.776550,1554.356689 537.633301,1614.900879 
	C534.204468,1615.935913 530.880310,1616.144409 527.556213,1616.145020 
	C437.274231,1616.162476 346.992218,1616.160889 256.710236,1616.150391 
	C253.380981,1616.150024 250.010208,1616.339966 246.730850,1615.901978 
	C239.155304,1614.889771 234.287277,1609.482544 233.712997,1601.838013 
	C233.588531,1600.181274 233.676880,1598.507935 233.676880,1596.842285 
	C233.677231,1430.270264 233.678345,1263.698364 233.683426,1097.126343 
	C233.683456,1096.127563 233.739685,1095.128784 233.940063,1093.229614 
	C334.700531,1092.367188 435.290558,1092.405151 536.778992,1092.611084 
	C537.692688,1165.294678 537.708008,1237.810303 537.874756,1311.270996 
z"/>
<path fill="#060606" opacity="1.000000" stroke="none" 
	d="
M2464.967041,1615.054199 
	C2464.241943,1611.688599 2464.096436,1609.026001 2464.096191,1606.363525 
	C2464.085205,1453.045410 2464.086426,1299.727295 2464.086182,1146.409180 
	C2464.086182,1143.442139 2464.085938,1140.475098 2464.085938,1136.795288 
	C2527.968018,1136.795288 2591.357910,1136.795288 2655.210205,1136.795288 
	C2655.210205,1296.309814 2655.210205,1455.491089 2655.210205,1615.351440 
	C2653.305908,1615.594849 2651.439941,1616.040771 2649.573975,1616.041748 
	C2589.246582,1616.073730 2528.919434,1616.064331 2468.592041,1616.046021 
	C2467.599365,1616.045654 2466.606689,1615.857788 2464.967041,1615.054199 
z"/>
<path fill="#050505" opacity="1.000000" stroke="none" 
	d="
M1510.756470,1418.000610 
	C1510.756470,1484.271118 1510.756470,1549.541504 1510.756470,1615.439453 
	C1447.200195,1615.439453 1384.083252,1615.439453 1320.317871,1615.439453 
	C1320.317871,1456.166626 1320.317871,1296.787842 1320.317871,1136.747192 
	C1383.187988,1136.747192 1446.277222,1136.747192 1510.756470,1136.747192 
	C1510.756470,1230.133179 1510.756470,1323.566895 1510.756470,1418.000610 
z"/>
<path fill="#029149" opacity="1.000000" stroke="none" 
	d="
M2132.508545,570.493958 
	C2139.704834,565.034729 2146.336426,560.014343 2153.626709,554.495361 
	C2156.655762,556.505676 2159.690186,558.412170 2162.614014,560.475464 
	C2215.430664,597.746094 2268.646240,634.416443 2324.444580,667.156677 
	C2372.791992,695.524841 2422.498291,721.025879 2476.152588,738.047791 
	C2505.797119,747.452637 2536.050049,753.896118 2567.181885,755.201233 
	C2616.142578,757.253784 2661.624512,745.734863 2703.052979,719.169556 
	C2704.449219,718.274048 2705.768311,717.253540 2707.088379,716.245300 
	C2708.055664,715.506470 2708.964844,714.691711 2710.989746,713.000732 
	C2711.437500,715.778809 2712.290283,717.607727 2711.813477,718.972107 
	C2711.189209,720.759338 2709.578857,722.234070 2708.283691,723.750305 
	C2675.116699,762.588684 2637.652344,796.285278 2592.207764,820.355469 
	C2547.328857,844.125977 2499.496338,854.610962 2448.740479,852.699097 
	C2395.297852,850.686157 2345.180664,835.708130 2296.540039,814.733032 
	C2241.263916,790.896545 2189.785889,760.207458 2140.252930,726.297729 
	C2105.073242,702.214111 2070.787354,676.824707 2036.111938,652.004944 
	C2034.770630,651.044861 2033.527588,649.947388 2031.066650,647.973816 
	C2064.998291,622.059753 2098.470947,596.496338 2132.508545,570.493958 
z"/>
<path fill="#029149" opacity="1.000000" stroke="none" 
	d="
M1322.774170,412.820923 
	C1362.206421,356.881104 1409.681763,310.159149 1473.486694,282.493652 
	C1511.401245,266.054108 1551.234253,259.834045 1592.457642,261.265167 
	C1647.545166,263.177643 1699.374390,278.354675 1749.800537,299.313995 
	C1814.030396,326.010620 1873.649902,361.192963 1931.719849,399.107300 
	C1958.212280,416.404480 1984.202759,434.470642 2010.402344,452.215332 
	C2012.845337,453.869995 2015.154785,455.721985 2018.637939,458.307648 
	C1977.740845,487.513397 1937.520386,516.235962 1896.536987,545.503357 
	C1893.643555,543.484924 1890.664673,541.536865 1887.823364,539.405457 
	C1835.573242,500.211548 1782.685791,461.936523 1726.547119,428.402924 
	C1681.837158,401.696228 1635.563110,378.313873 1585.523682,363.091217 
	C1557.677734,354.620148 1529.267822,349.092804 1500.141602,348.381470 
	C1437.084839,346.841431 1381.973877,367.992065 1333.576538,407.769226 
	C1331.004517,409.883240 1328.458618,412.029205 1324.812988,413.938141 
	C1323.408325,413.417633 1323.091187,413.119293 1322.774170,412.820923 
z"/>
<path fill="#0356A6" opacity="1.000000" stroke="none" 
	d="
M1274.702148,550.782593 
	C1282.218872,477.016815 1324.211792,428.901245 1386.287354,395.897644 
	C1434.385498,370.325226 1486.297607,362.630035 1540.215332,366.469604 
	C1542.202271,366.611115 1544.170898,367.032074 1546.142700,367.354767 
	C1548.094238,367.674103 1550.039062,368.033997 1551.972900,368.373627 
	C1535.756470,372.977417 1519.386719,376.707153 1503.663696,382.266144 
	C1461.990112,397.000183 1426.085815,420.537048 1398.518066,455.534546 
	C1345.931519,522.293396 1348.083252,608.452942 1403.679199,672.791931 
	C1430.902710,704.296692 1464.914185,725.752502 1503.779541,739.942017 
	C1506.882080,741.074768 1509.955322,742.289307 1513.025879,743.506714 
	C1513.258667,743.598999 1513.361328,744.019836 1514.171753,745.352051 
	C1510.365112,745.741760 1506.959106,745.921997 1503.610352,746.458618 
	C1452.990967,754.569336 1407.274780,741.835876 1365.078857,714.004150 
	C1328.834351,690.097900 1300.690796,659.377625 1285.031494,618.309937 
	C1276.862427,596.886047 1273.375977,574.638428 1274.702148,550.782593 
z"/>
<path fill="#F79520" opacity="1.000000" stroke="none" 
	d="
M2762.846924,503.281006 
	C2784.718994,565.422791 2772.703613,620.878113 2732.172363,670.488403 
	C2701.250977,708.336304 2660.545166,731.851013 2614.015381,745.065430 
	C2593.628662,750.855286 2572.332031,748.597961 2551.376953,747.153992 
	C2546.119873,746.791687 2540.901611,745.863159 2534.678711,745.068970 
	C2537.318115,741.129700 2541.155762,741.090759 2544.228516,739.970581 
	C2583.460449,725.668884 2617.708740,703.927002 2644.977783,671.999573 
	C2672.352783,639.947815 2687.614258,602.888489 2687.485352,560.539978 
	C2687.356689,518.200745 2671.969238,481.179230 2644.369385,449.313141 
	C2610.488281,410.195068 2567.195801,386.673370 2517.541992,374.026855 
	C2510.465820,372.224548 2503.285400,370.831787 2493.840820,368.736511 
	C2499.331299,367.750458 2502.652100,366.837799 2506.021484,366.595520 
	C2576.937744,361.496338 2642.517822,376.110382 2699.792480,420.111938 
	C2728.080566,441.844452 2749.617432,469.000427 2762.846924,503.281006 
z"/>
<path fill="#070707" opacity="1.000000" stroke="none" 
	d="
M2518.729736,900.393066 
	C2540.755127,891.273621 2562.711426,889.729919 2585.027588,895.118103 
	C2627.005127,905.253479 2655.489014,941.669434 2657.143311,987.160645 
	C2658.337891,1020.008545 2647.907715,1048.394165 2622.265869,1069.612671 
	C2592.963623,1093.859985 2559.046631,1097.586304 2524.404785,1085.025757 
	C2490.200195,1072.623901 2469.804199,1046.528564 2463.763428,1010.502136 
	C2457.553955,973.468689 2467.129150,941.044495 2495.703125,915.621033 
	C2502.327393,909.726990 2510.542725,905.620972 2518.729736,900.393066 
z"/>
<path fill="#060606" opacity="1.000000" stroke="none" 
	d="
M1373.482910,1082.704224 
	C1337.112183,1063.716797 1318.580078,1034.187500 1317.751587,994.013184 
	C1316.933594,954.347107 1332.957520,922.670349 1368.063110,903.947632 
	C1430.872559,870.449951 1509.194092,908.525085 1512.518311,986.238647 
	C1513.823242,1016.742554 1504.981689,1043.321167 1482.942871,1065.059570 
	C1463.208618,1084.524658 1438.988281,1091.932251 1411.959961,1091.309326 
	C1398.919434,1091.008789 1386.140015,1088.632568 1373.482910,1082.704224 
z"/>
<path fill="#0658A7" opacity="1.000000" stroke="none" 
	d="
M1464.015625,596.198914 
	C1466.823608,595.980713 1468.723511,595.780090 1471.017212,595.537842 
	C1471.186890,593.148438 1471.441528,591.210876 1471.444092,589.273132 
	C1471.472412,567.365601 1471.462158,545.458130 1471.462158,522.901001 
	C1467.471069,522.342407 1464.041382,521.862366 1460.053467,521.304260 
	C1460.053467,515.982605 1460.053467,510.784851 1460.053467,504.909241 
	C1462.063843,504.635437 1464.241699,504.092560 1466.422241,504.081604 
	C1481.055664,504.008148 1495.689697,504.045197 1510.323608,504.054962 
	C1511.653320,504.055847 1512.995483,504.011017 1514.310669,504.166718 
	C1525.094482,505.443329 1534.663452,508.929779 1538.534058,520.250488 
	C1542.355225,531.426514 1540.727051,541.885803 1532.522339,550.865662 
	C1531.854126,551.597046 1530.979736,552.138000 1530.293701,552.855774 
	C1529.642578,553.536743 1529.113159,554.333740 1528.321411,555.346985 
	C1541.425049,563.036316 1546.087280,574.620056 1544.135132,589.223938 
	C1542.561646,600.995117 1536.078003,608.639282 1524.720825,611.982483 
	C1521.557373,612.913818 1518.208862,613.674927 1514.937866,613.704773 
	C1497.645752,613.862915 1480.351196,613.775757 1463.057617,613.715149 
	C1462.139771,613.711914 1461.223755,613.175293 1459.520996,612.639954 
	C1459.520996,608.476440 1459.234253,604.191772 1459.685669,599.986389 
	C1459.832153,598.622925 1461.912109,597.467163 1464.015625,596.198914 
M1492.400391,593.970947 
	C1498.834106,594.248535 1505.364990,595.347534 1511.677490,594.600403 
	C1519.981201,593.617676 1523.582031,588.520874 1523.661377,580.247620 
	C1523.731934,572.886902 1519.988159,567.409058 1512.481934,565.979431 
	C1506.143921,564.772339 1499.546265,564.927368 1491.956665,564.403015 
	C1491.956665,574.522156 1491.956665,583.353455 1492.400391,593.970947 
M1491.921631,527.437988 
	C1491.921631,534.025879 1491.921631,540.613770 1491.921631,547.836487 
	C1498.732300,547.836487 1504.647827,548.138794 1510.515991,547.741699 
	C1515.283325,547.419067 1518.605957,544.424133 1519.612183,539.736023 
	C1520.673340,534.792236 1521.022095,529.726868 1516.814209,525.730286 
	C1512.309692,521.451904 1498.051270,520.208923 1492.355591,523.663635 
	C1491.980469,523.891174 1492.083252,524.906799 1491.921631,527.437988 
z"/>
<path fill="#0758A7" opacity="1.000000" stroke="none" 
	d="
M1640.621826,580.511963 
	C1637.277222,611.820496 1602.133179,627.318848 1577.371582,609.145386 
	C1567.168335,601.656738 1563.164062,591.009216 1563.109375,578.684753 
	C1563.041382,563.361023 1563.085938,548.036682 1563.082275,532.712646 
	C1563.081543,529.454285 1563.082153,526.195923 1563.082153,522.425476 
	C1559.095825,521.975830 1555.883057,521.613403 1551.873291,521.161072 
	C1551.873291,515.834045 1551.873291,510.413574 1551.873291,504.508911 
	C1565.673218,504.508911 1579.172729,504.508911 1593.314697,504.508911 
	C1593.314697,509.962799 1593.314697,515.109375 1593.314697,520.866089 
	C1590.592529,521.351257 1587.767700,521.854675 1584.801025,522.383423 
	C1584.541748,523.303101 1584.051880,524.237000 1584.048218,525.172729 
	C1583.983276,541.828613 1583.909790,558.485229 1584.022461,575.140381 
	C1584.042358,578.081238 1584.519653,581.138123 1585.429565,583.931763 
	C1588.188599,592.402771 1593.570190,596.258972 1601.599121,595.987366 
	C1610.231567,595.695312 1616.260498,591.288574 1618.791626,583.312500 
	C1619.290649,581.740051 1619.768433,580.071594 1619.774414,578.445618 
	C1619.842896,559.850586 1619.817993,541.255249 1619.817993,522.384705 
	C1616.478271,521.869080 1613.671753,521.435791 1610.569946,520.956909 
	C1610.569946,515.489258 1610.569946,510.567413 1610.569946,505.653625 
	C1617.447998,503.667023 1640.343872,503.282837 1652.359253,505.031738 
	C1652.359253,510.132080 1652.359253,515.317505 1652.359253,521.056946 
	C1648.877197,521.443359 1645.682129,521.797913 1641.152954,522.300476 
	C1641.000488,541.325989 1640.846802,560.481689 1640.621826,580.511963 
z"/>
<path fill="#F79622" opacity="1.000000" stroke="none" 
	d="
M2423.914551,504.033691 
	C2430.184814,504.033691 2435.467285,504.033691 2441.716553,504.033691 
	C2442.883301,515.077087 2442.128906,525.547241 2442.303955,536.706177 
	C2435.465332,536.706177 2429.311035,536.706177 2422.304932,536.706177 
	C2421.863770,532.622803 2421.415527,528.473022 2420.842529,523.169983 
	C2412.553711,521.885742 2404.090820,522.551086 2394.795898,522.828064 
	C2394.795898,531.545227 2394.795898,539.968933 2394.795898,549.389587 
	C2404.459473,549.389587 2414.292969,549.389587 2424.976074,549.389587 
	C2424.976074,555.116577 2424.976074,559.890686 2424.976074,566.031982 
	C2415.242188,566.031982 2405.163574,566.031982 2394.541504,566.031982 
	C2394.541504,576.216797 2394.541504,585.071716 2394.541504,595.277161 
	C2398.695801,595.353882 2402.881836,595.462097 2407.068604,595.500061 
	C2411.341309,595.538818 2415.614258,595.508606 2420.678223,595.508606 
	C2421.203857,590.306885 2421.655762,585.835693 2422.160889,580.837402 
	C2428.608887,580.837402 2434.773682,580.837402 2441.638672,580.837402 
	C2441.638672,591.562317 2441.638672,602.018372 2441.638672,613.160889 
	C2415.124268,613.160889 2388.702637,613.160889 2361.590332,613.160889 
	C2361.590332,607.760742 2361.590332,602.612183 2361.590332,596.887817 
	C2365.069824,596.448547 2368.246582,596.047485 2372.151367,595.554504 
	C2372.151367,571.371460 2372.151367,547.275391 2372.151367,522.529358 
	C2369.009521,522.076477 2365.825684,521.617615 2361.771484,521.033264 
	C2361.771484,515.772766 2361.771484,510.383942 2361.771484,504.033661 
	C2382.465820,504.033661 2402.696289,504.033661 2423.914551,504.033691 
z"/>
<path fill="#F79724" opacity="1.000000" stroke="none" 
	d="
M2339.708740,556.052490 
	C2353.327881,561.876221 2357.553711,572.072815 2356.093262,585.443115 
	C2354.633057,598.808472 2348.498535,608.968323 2335.563721,613.572693 
	C2324.159424,617.632202 2312.697754,617.696899 2302.210449,609.848511 
	C2297.310303,616.072144 2291.073486,613.541626 2284.511230,613.419128 
	C2284.511230,602.790527 2284.511230,592.615723 2284.511230,581.650146 
	C2290.243896,581.650146 2296.039062,581.650146 2302.458008,581.650146 
	C2303.201172,583.533813 2304.026367,585.618347 2304.845947,587.705017 
	C2308.601807,597.264648 2315.782471,600.577393 2325.654541,597.303589 
	C2335.215332,594.133057 2338.266846,582.842407 2331.208252,575.657471 
	C2328.717041,573.121704 2325.395752,571.208557 2322.146973,569.649292 
	C2314.954346,566.197083 2307.511230,563.270691 2300.272461,559.909546 
	C2287.390381,553.928162 2282.339844,544.734619 2283.654541,530.122559 
	C2284.734863,518.118164 2293.646729,507.360962 2305.302490,504.106140 
	C2315.481934,501.263519 2325.055420,502.712372 2334.021240,508.513824 
	C2338.152100,501.711395 2344.508301,504.445862 2351.050781,504.305756 
	C2351.050781,513.992188 2351.050781,523.424194 2351.050781,533.611206 
	C2345.313232,533.611206 2339.523438,533.611206 2334.733643,533.611206 
	C2331.489258,529.570740 2329.250732,525.301575 2325.758057,522.746094 
	C2318.822266,517.671143 2310.354980,519.757019 2305.774414,526.748657 
	C2301.798340,532.817627 2303.673584,539.854431 2311.417725,544.349426 
	C2316.832031,547.492249 2322.923340,549.482422 2328.749512,551.896973 
	C2332.127197,553.296692 2335.578857,554.517090 2339.708740,556.052490 
z"/>
<path fill="#0959A8" opacity="1.000000" stroke="none" 
	d="
M1754.953613,504.059692 
	C1756.839111,505.189484 1758.601074,506.230103 1758.697266,507.406738 
	C1759.045288,511.669434 1758.834229,515.977783 1758.834229,520.895630 
	C1755.181396,521.380676 1752.027466,521.799438 1747.910645,522.346069 
	C1738.868652,539.052917 1728.890381,555.955566 1720.601685,573.649597 
	C1717.757935,579.720276 1719.140381,587.770752 1718.550903,595.453491 
	C1723.036621,595.915161 1726.256714,596.246582 1730.202637,596.652649 
	C1730.202637,602.115784 1730.202637,607.548279 1730.202637,613.345093 
	C1715.586426,613.345093 1701.433350,613.345093 1686.724121,613.345093 
	C1686.724121,607.715088 1686.724121,602.567261 1686.724121,596.773804 
	C1690.133301,596.418274 1693.346924,596.083130 1697.494385,595.650635 
	C1698.057983,586.009399 1699.385010,576.577271 1693.879028,567.173767 
	C1685.312622,552.543274 1677.651978,537.382568 1669.514404,522.274048 
	C1666.124268,521.956116 1662.843872,521.648499 1658.800659,521.269348 
	C1658.800659,515.890259 1658.800659,510.493073 1658.800659,504.550629 
	C1672.501221,504.550629 1685.962036,504.550629 1699.896973,504.550629 
	C1699.896973,510.221985 1699.896973,515.403931 1699.896973,521.039307 
	C1697.207153,521.504211 1694.761719,521.926880 1691.307983,522.523804 
	C1697.109009,533.997742 1702.587891,544.834534 1708.650757,556.826233 
	C1714.873291,544.797974 1720.349243,534.212952 1726.355225,522.603210 
	C1722.938232,522.069458 1720.211548,521.643494 1716.828857,521.115112 
	C1716.828857,516.006653 1716.828857,510.817383 1716.828857,504.274750 
	C1722.734863,504.194366 1728.909424,504.075958 1735.084717,504.035919 
	C1741.411377,503.994934 1747.738770,504.030701 1754.953613,504.059692 
z"/>
<path fill="#F79928" opacity="1.000000" stroke="none" 
	d="
M2535.196777,597.266602 
	C2538.778320,596.320618 2541.746582,596.017578 2545.420898,595.642395 
	C2545.420898,571.501770 2545.420898,547.366516 2545.420898,522.435242 
	C2542.128662,522.025330 2538.675781,521.595398 2534.707275,521.101318 
	C2534.707275,515.570496 2534.707275,510.426117 2534.707275,504.638580 
	C2549.483643,504.638580 2563.904785,504.638580 2578.885986,504.638580 
	C2578.885986,510.292236 2578.885986,515.438232 2578.885986,521.093567 
	C2575.238281,521.510559 2572.033691,521.876892 2568.144531,522.321533 
	C2568.144531,545.869751 2568.144531,569.335876 2568.144531,593.525635 
	C2575.951416,593.525635 2583.748779,593.525635 2592.067871,593.525635 
	C2592.636963,589.325439 2593.197021,585.189758 2593.805176,580.701965 
	C2600.466553,580.701965 2606.650391,580.701965 2613.489258,580.701965 
	C2613.489258,591.611206 2613.489258,602.070251 2613.489258,613.202637 
	C2587.469482,613.202637 2561.649902,613.202637 2534.583496,613.202637 
	C2534.583496,608.186340 2534.583496,603.047974 2535.196777,597.266602 
z"/>
<path fill="#F79724" opacity="1.000000" stroke="none" 
	d="
M2503.961914,613.843628 
	C2485.657959,613.787842 2468.345703,613.739075 2451.033691,613.647095 
	C2450.432861,613.643921 2449.834473,613.208984 2448.557129,612.711304 
	C2448.557129,607.862000 2448.557129,602.724487 2448.557129,596.967407 
	C2451.993408,596.468262 2455.457520,595.965149 2459.344238,595.400574 
	C2459.344238,570.952698 2459.344238,546.815674 2459.344238,522.330139 
	C2455.635986,521.927551 2452.421875,521.578613 2448.560303,521.159363 
	C2448.560303,515.786377 2448.560303,510.632324 2448.560303,504.745728 
	C2462.660889,504.745728 2476.787598,504.745728 2491.710449,504.745728 
	C2491.710449,509.848755 2491.710449,514.984619 2491.710449,520.839111 
	C2488.534424,521.346802 2485.061768,521.901917 2481.056152,522.542236 
	C2481.056152,546.115662 2481.056152,569.587830 2481.056152,593.663757 
	C2489.309814,593.663757 2497.123779,593.663757 2505.652588,593.663757 
	C2506.009033,589.730347 2506.358887,585.869202 2506.787598,581.138489 
	C2513.176270,581.138489 2519.630859,581.138489 2527.481934,581.138489 
	C2528.345947,591.119141 2527.560791,601.618469 2527.899414,613.506775 
	C2519.926514,613.623840 2512.440186,613.733704 2503.961914,613.843628 
z"/>
<path fill="#FE5A5B" opacity="1.000000" stroke="none" 
	d="
M1335.232788,715.904541 
	C1332.881470,713.351990 1330.530029,710.799377 1328.178589,708.246826 
	C1328.566162,707.703064 1328.953613,707.159241 1329.341187,706.615479 
	C1331.931641,708.424438 1334.522217,710.233337 1336.691772,713.163025 
	C1335.924805,714.824036 1335.578857,715.364319 1335.232788,715.904541 
z"/>
<path fill="#5AB787" opacity="1.000000" stroke="none" 
	d="
M2711.697754,713.687012 
	C2714.012939,711.786621 2716.328369,709.886292 2719.348389,708.018677 
	C2720.053223,708.051514 2720.161865,708.161438 2720.161865,708.161499 
	C2718.624268,710.707886 2717.086426,713.254272 2714.659668,715.476929 
	C2713.079590,714.664490 2712.388672,714.175781 2711.697754,713.687012 
z"/>
<path fill="#FD8484" opacity="1.000000" stroke="none" 
	d="
M2728.302490,413.782532 
	C2730.268555,416.072296 2732.234619,418.362122 2734.200684,420.651917 
	C2733.721191,421.111847 2733.241699,421.571777 2732.762207,422.031708 
	C2731.174561,420.815948 2729.586670,419.600189 2728.046631,416.921570 
	C2728.163818,414.899994 2728.233154,414.341278 2728.302490,413.782532 
z"/>
<path fill="#84C9A5" opacity="1.000000" stroke="none" 
	d="
M1322.027954,417.142639 
	C1320.653076,418.872864 1319.278198,420.603088 1317.903320,422.333344 
	C1317.300415,421.903046 1316.697510,421.472778 1316.094604,421.042511 
	C1317.566040,418.802002 1319.037476,416.561523 1321.204956,414.889069 
	C1321.943359,416.018951 1321.985596,416.580780 1322.027954,417.142639 
z"/>
<path fill="#5AB787" opacity="1.000000" stroke="none" 
	d="
M2720.000244,707.995117 
	C2720.282227,707.497620 2720.617188,707.056580 2720.952148,706.615601 
	C2720.979980,707.098999 2721.007812,707.582520 2720.598877,708.113708 
	C2720.161865,708.161438 2720.053223,708.051514 2720.000244,707.995117 
z"/>
<path fill="#FE5A5B" opacity="1.000000" stroke="none" 
	d="
M1337.064453,713.739258 
	C1339.653076,715.401672 1338.914551,716.518494 1335.764160,716.365356 
	C1335.578857,715.364319 1335.924805,714.824036 1337.064453,713.739258 
z"/>
<path fill="#029149" opacity="1.000000" stroke="none" 
	d="
M2711.318848,714.648804 
	C2712.388672,714.175781 2713.079590,714.664490 2714.050781,715.731201 
	C2713.200684,716.076233 2712.070068,715.843384 2711.318848,714.648804 
z"/>
<path fill="#FE0101" opacity="1.000000" stroke="none" 
	d="
M2728.087891,413.505859 
	C2728.233154,414.341278 2728.163818,414.899994 2728.033936,416.301025 
	C2727.293701,416.674011 2726.614014,416.204651 2725.648926,415.181946 
	C2725.673340,414.329559 2725.983398,414.030548 2726.780273,413.305176 
	C2727.267090,412.878876 2727.873291,413.229187 2728.087891,413.505859 
z"/>
<path fill="#029149" opacity="1.000000" stroke="none" 
	d="
M1322.570557,416.843079 
	C1321.985596,416.580780 1321.943359,416.018951 1321.798340,414.618225 
	C1321.695679,413.779297 1322.149658,413.202881 1322.461914,413.011902 
	C1323.091187,413.119293 1323.408325,413.417633 1324.184082,414.181396 
	C1324.132812,415.279053 1323.622925,415.911285 1322.570557,416.843079 
z"/>
<path fill="#F2F6FA" opacity="1.000000" stroke="none" 
	d="
M1492.178467,593.077881 
	C1491.956665,583.353455 1491.956665,574.522156 1491.956665,564.403015 
	C1499.546265,564.927368 1506.143921,564.772339 1512.481934,565.979431 
	C1519.988159,567.409058 1523.731934,572.886902 1523.661377,580.247620 
	C1523.582031,588.520874 1519.981201,593.617676 1511.677490,594.600403 
	C1505.364990,595.347534 1498.834106,594.248535 1492.178467,593.077881 
z"/>
<path fill="#F7F9FC" opacity="1.000000" stroke="none" 
	d="
M1491.942627,526.496948 
	C1492.083252,524.906799 1491.980469,523.891174 1492.355591,523.663635 
	C1498.051270,520.208923 1512.309692,521.451904 1516.814209,525.730286 
	C1521.022095,529.726868 1520.673340,534.792236 1519.612183,539.736023 
	C1518.605957,544.424133 1515.283325,547.419067 1510.515991,547.741699 
	C1504.647827,548.138794 1498.732300,547.836487 1491.921631,547.836487 
	C1491.921631,540.613770 1491.921631,534.025879 1491.942627,526.496948 
z"/>
</svg>