<svg version="1.2" xmlns="http://www.w3.org/2000/svg" viewBox="0 0 100 100" width="100" height="100"><style>.a{fill:#fffefe}.b{fill:#060606}.c{fill:#939090}.d{fill:#0154a5}.e{fill:#f7941d}.f{fill:#fe0101}.g{fill:#ed1b24}.h{fill:#ed1c24}.i{fill:#050505}.j{fill:#0356a6}.k{fill:#f79520}.l{fill:#070707}.m{fill:#0658a7}.n{fill:#0758a7}.o{fill:#f79622}.p{fill:#f79724}.q{fill:#0959a8}.r{fill:#f79928}.s{fill:#fe5a5b}.t{fill:#5ab787}.u{fill:#fd8484}.v{fill:#84c9a5}.w{fill:#029149}.x{fill:#5e6d66}.y{fill:#f7f9fc}</style><path class="a" d="m72.6 80.1q-36.3 0-72.5 0 0-30 0-60 50 0 100 0 0 30 0 60-13.7 0-27.5 0zm-28.6-46.3q-0.1 0.1-0.1 0.2 0 0.1 0 0.1 0.1-0.1 0.2-0.2 0 0 0.1-0.1 0.1-0.1 0.3-0.2c1.6-1.3 3.4-2 5.5-2q1.5 0.1 2.9 0.5c1.6 0.5 3.2 1.3 4.7 2.2 1.8 1.1 3.6 2.4 5.3 3.7q0.2 0.1 0.3 0.2 2.1-1.5 4.1-2.9-0.2-0.1-0.3-0.2-1.3-0.9-2.6-1.8c-1.9-1.3-3.9-2.4-6.1-3.3-1.7-0.7-3.4-1.2-5.2-1.3-1.4 0-2.7 0.2-4 0.7-2.1 0.9-3.7 2.5-5 4.4q0 0-0.1 0zm46.9 0.1q0.1 0.1 0.2 0.2 0-0.1 0-0.1-0.1-0.1-0.2-0.2 0 0 0-0.1-1-1.4-2.3-2.6c-1.2-1-2.5-1.7-4-2.1-1.7-0.4-3.4-0.4-5.1 0-1.6 0.4-3.1 1-4.5 1.8-2.1 1-4.1 2.3-6 3.6-2.3 1.6-4.6 3.2-6.8 4.8-2 1.4-4 2.7-6.1 3.8-1.7 0.9-3.5 1.7-5.4 2-2.1 0.4-4.1 0.1-5.9-1.1q-0.1 0-0.2-0.1c0 0.2 0.1 0.3 0.2 0.4 0.5 0.5 0.9 1 1.5 1.5 2.6 2.4 5.7 3.2 9.2 2.4 1.6-0.3 3.1-1 4.6-1.7 1.9-1 3.7-2.2 5.4-3.5 2.2-1.6 4.3-3.2 6.5-4.9 1.9-1.4 3.8-2.8 5.9-4 1.6-0.9 3.2-1.7 5-2.1 1.2-0.3 2.3-0.4 3.5-0.2 1.5 0.2 2.7 0.8 3.9 1.7q0.3 0.2 0.6 0.5 0 0 0 0zm1.2 2.9c-0.4-1.2-1.2-2.1-2.1-2.8-1.9-1.5-4.1-2-6.5-1.8-0.1 0-0.2 0.1-0.4 0.1 0.3 0.1 0.6 0.1 0.8 0.2 1.7 0.4 3.1 1.2 4.2 2.5 1 1 1.5 2.3 1.5 3.7 0 1.4-0.5 2.6-1.4 3.7-0.9 1.1-2.1 1.8-3.4 2.3-0.1 0-0.2 0-0.3 0.1q0.3 0.1 0.5 0.1c0.7 0.1 1.5 0.1 2.1-0.1 1.6-0.4 2.9-1.2 4-2.5 1.3-1.6 1.7-3.5 1-5.5zm-49.6 1.6q-0.1 1.1 0.3 2.2c0.6 1.4 1.5 2.4 2.7 3.2 1.4 0.9 2.9 1.4 4.6 1.1q0.2 0 0.4-0.1-0.1 0-0.1 0-0.1-0.1-0.3-0.1c-1.3-0.5-2.4-1.2-3.3-2.3-1.9-2.1-1.9-5-0.2-7.2 0.9-1.2 2.1-2 3.5-2.5 0.5-0.1 1.1-0.3 1.6-0.4q-0.1 0-0.2-0.1-0.1 0-0.2 0c-1.8-0.1-3.5 0.1-5.1 1-2.1 1.1-3.5 2.7-3.7 5.2zm-24.6 25.3c0-2.4 0-4.9 0.1-7.3q0.2 0 0.4 0 7.7 0 15.4 0 0.5 0 1.1-0.1c3-0.4 5.3-3 5.4-6.1q0-1.8 0-3.6 0-0.2 0-0.3-0.3 0-0.5 0-10.7 0-21.5 0-0.2 0-0.4-0.1 0-3.5 0-6.9 0-0.2 0.1-0.4 7.9 0 15.8 0 0.5 0 1.1-0.1c3.3-0.5 5.4-3.3 5.4-6.2q0-1.8 0-3.5 0-0.1 0-0.3-0.3 0-0.4 0-13.5 0-27 0-0.2 0-0.3 0c-0.1 0-0.1 0-0.2 0.1q-0.3-0.1-0.6-0.1-1.7 0-3.5 0c-0.4 0-0.5 0.1-0.5 0.5q0 0 0 0.1 0 11.1 0 22.3 0 0.3 0 0.6 0 1.2 0 2.5c0 0.5 0 1.1 0 1.7q0 0 0 0.1 0 8.3 0 16.6 0 0.1 0 0.2c0 0.2 0.2 0.4 0.4 0.5q0.2 0 0.4 0 4.5 0 9 0c0.1 0 0.2 0 0.4 0q8 0 16.1 0 0.4 0 0.8-0.1c3-0.4 5.3-3 5.4-6q0-1.9 0-3.8 0-0.1-0.1-0.3-0.2 0-0.4 0-7 0-14 0-3.9 0.1-7.9 0zm44.6-0.5q0.7 0.4 0.7 1.2 0 0.3 0 0.5 0 4.3 0 8.6 0 0.2 0 0.4 3.2 0 6.4 0 0-0.2 0-0.4 0-4.3 0-8.6 0-0.1 0-0.3c0-0.9 0.6-1.5 1.5-1.6 0.9-0.2 1.7 0.4 1.9 1.2q0.1 0.4 0.1 0.7 0 4.3 0 8.6 0 0.2 0 0.3 3.2 0 6.4 0 0-0.1 0-0.1 0-4.7 0-9.4 0-1-0.2-1.9c-0.6-2.3-2-3.9-4.3-4.6-1-0.3-2-0.3-3-0.2-1.5 0.1-2.7 0.6-3.8 1.5q-0.1 0.1-0.2 0.2-0.2-0.1-0.3-0.2c-0.6-0.6-1.2-1-2-1.2-2-0.6-3.8-0.4-5.6 0.6q-0.2 0.1-0.3 0.2 0-0.4 0-0.8-3.2 0-6.4 0 0 8 0 15.9 3.2 0 6.4 0 0-0.2 0-0.3 0-4.3 0-8.6 0-0.3 0-0.6 0.1-1 1.1-1.3c0.5-0.1 1.1-0.1 1.6 0.2zm19.7 10.7q0 0 0.1 0 3 0 6 0 0.1 0 0.2-0.1 0-7.9 0-15.9-3.2 0-6.4 0 0 0.2 0 0.3 0 7.7 0 15.3 0 0.2 0.1 0.4zm-31.8-6.7q0-4.6 0-9.3-3.3 0-6.4 0 0 8 0 15.9 3.2 0 6.4 0c0-2.1 0-4.3 0-6.6zm20.7-28.2q-1.7 1.3-3.4 2.6 0.1 0.1 0.2 0.1c1.1 0.9 2.3 1.7 3.4 2.5 1.7 1.1 3.4 2.2 5.3 3 1.6 0.7 3.2 1.2 5 1.2q2.6 0.1 4.8-1.1c1.5-0.8 2.8-1.9 3.9-3.2q0.1 0 0.1-0.1 0-0.1 0-0.2-0.1 0-0.2 0.1 0 0-0.1 0.1-2.1 1.3-4.5 1.2c-1.1-0.1-2.1-0.3-3.1-0.6-1.8-0.6-3.4-1.4-5-2.4-1.9-1.1-3.7-2.3-5.4-3.5q-0.2-0.1-0.3-0.2c-0.3 0.2-0.5 0.3-0.7 0.5zm-26.6 4.9c0.1 0 0.2-0.1 0.1-0.2q-0.2-0.1-0.3-0.1 0 0 0 0 0.1 0.1 0.2 0.3zm46.1-0.3c-0.1 0.1-0.1 0.1-0.2 0.3q0 0 0.1 0 0.1-0.2 0.2-0.3 0 0 0 0 0 0-0.1 0zm-6.7 6.4c-0.2 0.2-0.5 0.3-0.7 0.5-1 0.9-1.3 1.9-1.1 3.2 0.2 1.2 0.9 2.1 2 2.5 1.2 0.4 2.3 0.3 3.3-0.5 0.9-0.8 1.2-1.7 1.2-2.8-0.1-1.5-1-2.7-2.4-3.1q-1.1-0.2-2.3 0.2zm-38.1 6.1q0.6 0.3 1.3 0.3c0.9 0 1.7-0.2 2.3-0.9 0.8-0.7 1.1-1.6 1-2.6-0.1-2.6-2.7-3.9-4.8-2.8-1.2 0.7-1.7 1.7-1.7 3q0.1 2 1.9 3zm3-16.2c-0.1 0-0.1 0.1-0.1 0.1q-0.1 0.2 0 0.4 0 0.1 0.1 0.1 0.8 0 1.7 0 0.2 0 0.3-0.1 0.6-0.2 0.7-0.8c0-0.4-0.1-0.8-0.6-1.1q0.1 0 0.1-0.1 0 0 0.1 0 0.4-0.5 0.2-1.1c-0.1-0.3-0.5-0.5-0.8-0.5q-0.1 0-0.2 0-0.7 0-1.4 0-0.1 0-0.2 0 0 0.3 0 0.6 0.2 0 0.3 0 0 1.2 0 2.2 0 0.1 0 0.3c0 0-0.1 0-0.2 0zm5.9-0.6q0-0.9 0-1.9 0.2 0 0.4 0 0-0.3 0-0.6c-0.4 0-1.2 0-1.4 0.1q0 0.2 0 0.5 0.1 0 0.3 0 0 1 0 1.9 0 0.1 0 0.1-0.2 0.4-0.6 0.5-0.4 0-0.6-0.4 0-0.2 0-0.3 0-0.9 0-1.7 0 0 0-0.1 0.2 0 0.3 0 0-0.3 0-0.6-0.7 0-1.4 0 0 0.3 0 0.6 0.2 0 0.4 0 0 0.2 0 0.4 0 0.7 0 1.5c0 0.4 0.1 0.8 0.5 1 0.8 0.6 2 0.1 2.1-1zm26.1-2.5q-1 0-2.1 0 0 0.3 0 0.6 0.2 0 0.4 0 0 1.2 0 2.5-0.2 0-0.4 0 0 0.3 0 0.5 1.4 0 2.7 0 0-0.5 0-1-0.3 0-0.7 0 0 0.2 0 0.5-0.3 0-0.5 0-0.2-0.1-0.4-0.1c0-0.3 0-0.6 0-0.9q0.5 0 1 0c0-0.2 0-0.4 0-0.6q-0.5 0-1 0 0-0.4 0-0.9c0.3 0 0.6 0 0.9 0q0 0.3 0 0.5 0.4 0 0.7 0c0-0.4 0-0.7 0-1.1-0.2 0-0.4 0-0.6 0zm-2.8 1.7q-0.2 0-0.4-0.1-0.3-0.1-0.6-0.3c-0.2-0.1-0.3-0.3-0.1-0.5 0.1-0.3 0.4-0.3 0.6-0.2 0.1 0.1 0.2 0.3 0.3 0.4q0.3 0 0.6 0 0-0.5 0-1c-0.2 0-0.5-0.1-0.6 0.2q-0.4-0.3-1-0.2c-0.3 0.1-0.6 0.5-0.7 0.9 0 0.5 0.1 0.8 0.6 1q0.3 0.1 0.7 0.3 0.2 0.1 0.3 0.2c0.2 0.2 0.1 0.6-0.2 0.7q-0.5 0.2-0.7-0.3 0-0.1-0.1-0.2-0.3 0-0.5 0 0 0.5 0 1c0.2 0.1 0.4 0.1 0.5-0.1 0.4 0.3 0.8 0.3 1.2 0.2 0.4-0.2 0.6-0.5 0.6-1 0.1-0.4-0.1-0.8-0.5-1zm-19.5-1.7q-0.3 0-0.7 0-0.3 0-0.6 0 0 0.3 0 0.6 0.2 0 0.3 0c-0.2 0.4-0.3 0.8-0.5 1.2-0.2-0.4-0.4-0.8-0.6-1.2q0.1 0 0.3 0 0-0.3 0-0.6-0.7 0-1.4 0 0 0.3 0 0.6 0.2 0 0.4 0 0.3 0.8 0.8 1.5c0.1 0.3 0.1 0.6 0.1 1q-0.2 0-0.4 0 0 0.3 0 0.5 0.8 0 1.5 0 0-0.2 0-0.5c-0.2 0-0.3 0-0.4-0.1 0-0.2 0-0.5 0.1-0.7 0.2-0.6 0.6-1.1 0.9-1.7q0.2 0 0.3 0 0-0.3 0-0.5 0 0-0.1-0.1zm26 3.1q0 0.3 0 0.5 1.3 0 2.6 0 0-0.5 0-1-0.3 0-0.6 0-0.1 0.2-0.1 0.4-0.4 0-0.8 0 0-1.2 0-2.4 0.2 0 0.4 0 0-0.3 0-0.6-0.8 0-1.5 0 0 0.3 0 0.6 0.2 0 0.3 0 0 1.3 0 2.5c-0.1 0-0.2 0-0.3 0zm-1 0.6q0.4 0 0.8 0c0-0.4 0-0.8-0.1-1.1q-0.3 0-0.6 0-0.1 0.2-0.1 0.4-0.4 0-0.8 0 0-1.2 0-2.4 0.2 0 0.4 0 0-0.3 0-0.6-0.8 0-1.5 0 0 0.3 0 0.6 0.2 0 0.4 0 0 1.2 0 2.4-0.2 0.1-0.4 0.1 0 0.3 0 0.5 0.1 0.1 0.1 0.1c0.6 0 1.2 0 1.8 0z"/><path class="b" d="m62.5 63.2c-0.5-0.3-1.1-0.3-1.6-0.2q-1 0.3-1.1 1.3 0 0.3 0 0.6 0 4.3 0 8.6 0 0.1 0 0.3-3.2 0-6.4 0 0-7.9 0-15.9 3.2 0 6.4 0 0 0.4 0 0.8 0.1-0.1 0.3-0.2c1.8-1 3.6-1.2 5.6-0.6 0.8 0.2 1.4 0.6 2 1.2q0.1 0.1 0.3 0.2 0.1-0.1 0.2-0.2c1.1-0.9 2.3-1.4 3.8-1.5 1-0.1 2-0.1 3 0.2 2.3 0.7 3.7 2.3 4.3 4.6q0.2 0.9 0.2 1.9 0 4.7 0 9.4 0 0 0 0.1-3.2 0-6.4 0 0-0.1 0-0.3 0-4.3 0-8.6 0-0.3-0.1-0.7c-0.2-0.8-1-1.4-1.9-1.2-0.9 0.1-1.5 0.7-1.5 1.6q0 0.2 0 0.3 0 4.3 0 8.6 0 0.2 0 0.4-3.2 0-6.4 0 0-0.2 0-0.4 0-4.3 0-8.6 0-0.2 0-0.5 0-0.7-0.7-1.2z"/><path class="c" d="m7.8 56.4q0-0.8 0-1.6 0-1.2 0-2.5 0-0.1 0-0.1 0.7-4.3 4.8-5.6c0.6-0.2 1.3-0.3 2-0.3q1.7 0 3.3 0 0.2 0 0.4 0 10.8 0 21.5 0 0.2 0 0.5 0 0 0.1 0 0.3 0 1.8 0 3.6c-0.1 3.1-2.4 5.7-5.4 6.1q-0.6 0.1-1.1 0.1-7.7 0-15.4 0-0.2 0-0.5 0-5.1 0-10.1 0z"/><path class="d" d="m12.5 28.9q0-0.1 0.1-0.1 0.1 0 0.3 0 13.5 0 27 0 0.1 0 0.4 0 0 0.2 0 0.3 0 1.7 0 3.5c0 2.9-2.1 5.7-5.4 6.2q-0.6 0.1-1.1 0.1-7.9 0-15.8 0c-0.1-1.3-0.1-2.5-0.1-3.8 0-1.1-0.2-2.1-0.8-3q-1.5-2.8-4.6-3.2z"/><path class="e" d="m17.9 63.7q4 0 7.9 0 7 0 14 0 0.2 0 0.4 0 0.1 0.2 0.1 0.3 0 1.9 0 3.8c-0.1 3-2.4 5.6-5.4 6q-0.4 0.1-0.8 0.1-8 0-16.1-0.1-0.1-3-0.1-6 0-2 0-4.1z"/><path class="f" d="m90.8 33.8q-0.2-0.2-0.5-0.4c-1.2-0.9-2.4-1.5-3.9-1.7-1.2-0.2-2.3-0.1-3.5 0.2-1.8 0.4-3.4 1.2-5 2.1-2.1 1.2-4 2.6-5.9 4-2.2 1.7-4.3 3.3-6.5 4.9-1.7 1.3-3.5 2.5-5.4 3.5-1.5 0.7-3 1.4-4.6 1.7-3.5 0.8-6.6 0-9.2-2.4-0.6-0.5-1-1-1.5-1.5-0.1-0.1-0.2-0.2-0.2-0.4q0.1 0.1 0.2 0.1c1.8 1.2 3.8 1.5 5.9 1.1 1.9-0.3 3.7-1.1 5.4-2 2.1-1.1 4.1-2.4 6.1-3.8 2.2-1.6 4.5-3.2 6.8-4.8 1.9-1.3 3.9-2.6 6-3.6 1.4-0.8 2.9-1.4 4.5-1.8 1.7-0.4 3.4-0.4 5.1 0 1.5 0.4 2.8 1.1 4 2.1q1.3 1.2 2.3 2.7 0 0-0.1 0z"/><path class="g" d="m12.4 28.9q3.2 0.4 4.7 3.2c0.6 0.9 0.8 1.9 0.8 3q0 1.9 0 3.8 0 0.2 0 0.4 0 3.4 0 6.9-1.6 0.1-3.3 0.1c-0.7 0-1.4 0.1-2 0.3q-4.1 1.3-4.8 5.6 0 0 0 0.1 0-0.3 0-0.6 0-11.2 0-22.3 0-0.1 0-0.1c0-0.4 0.1-0.5 0.5-0.5q1.8 0 3.5 0c0.2 0 0.4 0 0.6 0.1z"/><path class="h" d="m17.9 63.7q0 2.1 0 4.1 0 3 0 6-0.1 0.1-0.3 0.1-4.5 0-9 0-0.2 0-0.4 0c-0.2-0.1-0.4-0.3-0.4-0.5q0-0.1 0-0.2 0-8.3 0-16.6 0-0.1 0-0.2 5 0 10.1 0 0 3.6 0 7.3z"/><path class="b" d="m82.2 73.8q-0.1-0.1-0.1-0.3 0-7.6 0-15.3 0-0.1 0-0.3 3.2 0 6.4 0 0 8 0 15.9-0.1 0.1-0.2 0.1-3 0-6 0-0.1 0-0.1-0.1z"/><path class="i" d="m50.4 67.3q0 3.3 0 6.5-3.2 0-6.4 0 0-7.9 0-15.9 3.1 0 6.4 0 0 4.7 0 9.4z"/><path class="c" d="m71.1 39q0.3-0.2 0.7-0.5 0.1 0.1 0.3 0.2c1.7 1.2 3.5 2.4 5.4 3.5 1.6 1 3.2 1.8 5 2.4 1 0.3 2 0.5 3.1 0.6q2.4 0.1 4.5-1.2 0.1-0.1 0.1-0.1 0.1-0.1 0.2-0.1 0 0.1 0 0.2 0 0.1-0.1 0.1c-1.1 1.3-2.4 2.4-3.9 3.2q-2.2 1.2-4.8 1.1c-1.8 0-3.4-0.5-5-1.2-1.9-0.8-3.6-1.9-5.3-3-1.1-0.8-2.3-1.6-3.4-2.5q-0.1 0-0.2-0.1 1.7-1.3 3.4-2.6z"/><path class="c" d="m44.1 33.8c1.3-1.9 2.9-3.5 5-4.4 1.3-0.5 2.6-0.7 4-0.7 1.8 0.1 3.5 0.6 5.2 1.3 2.2 0.9 4.2 2 6.1 3.3q1.3 0.9 2.6 1.8 0.1 0.1 0.3 0.2-2 1.4-4.1 2.9-0.1-0.1-0.3-0.2c-1.7-1.3-3.5-2.6-5.3-3.7-1.5-0.9-3.1-1.7-4.7-2.2q-1.4-0.4-2.9-0.5c-2.1 0-3.9 0.7-5.5 2q-0.2 0.1-0.3 0.2-0.1 0-0.1 0z"/><path class="j" d="m42.5 38.4c0.2-2.5 1.6-4.1 3.7-5.2 1.6-0.9 3.3-1.1 5.1-1q0.1 0 0.2 0 0.1 0.1 0.2 0.1c-0.5 0.1-1.1 0.3-1.6 0.4-1.4 0.5-2.6 1.3-3.5 2.5-1.7 2.2-1.7 5.1 0.2 7.2 0.9 1.1 2 1.8 3.3 2.3q0.2 0 0.3 0.1 0 0 0.1 0-0.2 0.1-0.4 0.1c-1.7 0.3-3.2-0.2-4.6-1.1-1.2-0.8-2.1-1.8-2.7-3.2q-0.4-1.1-0.3-2.2z"/><path class="k" d="m92.1 36.8c0.7 2 0.3 3.9-1 5.5-1.1 1.3-2.4 2.1-4 2.5-0.6 0.2-1.4 0.2-2.1 0.1q-0.2 0-0.5-0.1c0.1-0.1 0.2-0.1 0.3-0.1 1.3-0.5 2.5-1.2 3.4-2.3 0.9-1.1 1.4-2.3 1.4-3.7 0-1.4-0.5-2.7-1.5-3.7-1.1-1.3-2.5-2.1-4.2-2.5-0.2-0.1-0.5-0.1-0.8-0.2 0.2 0 0.3-0.1 0.4-0.1 2.4-0.2 4.6 0.3 6.5 1.8 0.9 0.7 1.7 1.6 2.1 2.8z"/><path class="l" d="m84 50q1.1-0.4 2.2-0.2c1.4 0.4 2.3 1.6 2.4 3.1 0 1.1-0.3 2-1.2 2.8-1 0.8-2.1 0.9-3.3 0.5-1.1-0.4-1.8-1.3-2-2.5-0.2-1.3 0.1-2.3 1.1-3.2 0.2-0.2 0.5-0.3 0.8-0.5z"/><path class="b" d="m45.8 56.1q-1.8-1-1.9-3c0-1.3 0.5-2.3 1.7-3 2.1-1.1 4.7 0.2 4.8 2.8 0.1 1-0.2 1.9-1 2.6-0.6 0.7-1.4 0.9-2.3 0.9q-0.7 0-1.3-0.3z"/><path class="m" d="m48.8 39.9q0.1 0 0.2 0 0-0.2 0-0.3 0-1 0-2.2-0.1 0-0.3 0 0-0.3 0-0.6 0.1 0 0.2 0 0.7 0 1.4 0 0.1 0 0.2 0c0.3 0 0.7 0.2 0.8 0.5q0.2 0.6-0.2 1.1-0.1 0-0.1 0 0 0.1-0.1 0.1c0.5 0.3 0.6 0.7 0.6 1.1q-0.1 0.6-0.7 0.8-0.1 0.1-0.3 0.1-0.9 0-1.7 0-0.1 0-0.1-0.1-0.1-0.2 0-0.4c0 0 0-0.1 0.1-0.1zm0.9-0.1c0.3 0 0.5 0 0.7 0q0.4 0 0.4-0.5c0-0.2-0.1-0.4-0.4-0.4-0.2-0.1-0.4-0.1-0.7-0.1 0 0.4 0 0.6 0 1zm0-2.2q0 0.3 0 0.7 0.4 0 0.7 0 0.2-0.1 0.3-0.3c0-0.2 0-0.3-0.1-0.5-0.2-0.1-0.7-0.2-0.9 0q0 0 0 0.1z"/><path class="n" d="m54.7 39.4c-0.1 1-1.3 1.5-2.1 0.9-0.4-0.2-0.5-0.6-0.5-1q0-0.8 0-1.5 0-0.2 0-0.4-0.2 0-0.4 0 0-0.3 0-0.6 0.7 0 1.4 0 0 0.3 0 0.6-0.1 0-0.3 0 0 0.1 0 0.1 0 0.8 0 1.7 0 0.1 0 0.3 0.2 0.4 0.6 0.4 0.4-0.1 0.6-0.5 0 0 0-0.1 0-0.9 0-1.9-0.2 0-0.3 0 0-0.3 0-0.5c0.2-0.1 1-0.1 1.4-0.1q0 0.3 0 0.6-0.2 0-0.4 0 0 1 0 2z"/><path class="o" d="m80.8 36.8c0.2 0 0.4 0 0.6 0 0 0.4 0 0.7 0 1.1q-0.3 0-0.7 0 0-0.2 0-0.5c-0.3 0-0.6 0-0.9 0q0 0.5 0 0.9 0.5 0 1 0c0 0.2 0 0.4 0 0.6q-0.5 0-1 0c0 0.3 0 0.6 0 0.9q0.2 0 0.4 0.1 0.2 0 0.5 0 0-0.3 0-0.5 0.4 0 0.7 0 0 0.5 0 1-1.3 0-2.7 0 0-0.2 0-0.5 0.2 0 0.4 0 0-1.3 0-2.5-0.2 0-0.4 0 0-0.3 0-0.6 1 0 2.1 0z"/><path class="p" d="m78 38.5c0.4 0.2 0.6 0.6 0.5 1 0 0.5-0.2 0.8-0.6 1-0.4 0.1-0.8 0.1-1.2-0.2-0.1 0.2-0.3 0.2-0.5 0.1q0-0.5 0-1 0.2 0 0.5 0 0.1 0.1 0.1 0.2 0.2 0.5 0.7 0.3c0.3-0.1 0.4-0.5 0.2-0.7q-0.1-0.1-0.3-0.2-0.4-0.2-0.7-0.3c-0.5-0.2-0.6-0.5-0.6-1 0.1-0.4 0.4-0.8 0.7-0.9q0.6-0.1 1 0.2c0.1-0.3 0.4-0.2 0.6-0.2q0 0.5 0 1-0.3 0-0.6 0c-0.1-0.1-0.2-0.3-0.3-0.4-0.2-0.1-0.5-0.1-0.6 0.2-0.2 0.2-0.1 0.4 0.1 0.5q0.3 0.2 0.6 0.3 0.2 0.1 0.4 0.1z"/><path class="q" d="m58.5 36.8q0.1 0.1 0.1 0.1 0 0.2 0 0.5-0.1 0-0.3 0c-0.3 0.6-0.7 1.1-0.9 1.7-0.1 0.2-0.1 0.5-0.1 0.7 0.1 0.1 0.2 0.1 0.4 0.1q0 0.3 0 0.5-0.7 0-1.5 0 0-0.2 0-0.5 0.2 0 0.4 0c0-0.4 0-0.7-0.1-1q-0.5-0.7-0.8-1.5-0.2 0-0.4 0 0-0.3 0-0.6 0.7 0 1.4 0 0 0.3 0 0.6-0.2 0-0.3 0c0.2 0.4 0.4 0.8 0.6 1.2 0.2-0.4 0.3-0.8 0.5-1.2q-0.1 0-0.3 0 0-0.3 0-0.6 0.3 0 0.6 0 0.3 0 0.7 0z"/><path class="r" d="m84.5 39.9q0.2 0 0.3 0 0-1.2 0-2.5-0.1 0-0.3 0 0-0.3 0-0.6 0.7 0 1.5 0 0 0.3 0 0.6-0.2 0-0.4 0 0 1.2 0 2.4 0.4 0 0.8 0 0-0.2 0.1-0.4 0.3 0 0.6 0 0 0.5 0 1-1.3 0-2.6 0 0-0.2 0-0.5z"/><path class="p" d="m83.5 40.5q-0.9 0-1.8 0 0 0-0.1-0.1 0-0.2 0-0.5 0.2 0 0.4-0.1 0-1.2 0-2.4-0.2 0-0.4 0 0-0.3 0-0.6 0.7 0 1.5 0 0 0.3 0 0.6-0.2 0-0.4 0 0 1.2 0 2.4 0.4 0 0.8 0 0-0.2 0.1-0.4 0.3 0 0.6 0c0.1 0.3 0.1 0.7 0.1 1.1q-0.4 0-0.8 0z"/><path class="s" d="m44.5 43.9q-0.1-0.2-0.2-0.3 0 0 0 0 0.1 0 0.3 0.2-0.1 0-0.1 0.1z"/><path class="t" d="m90.4 43.8q0.1-0.1 0.2-0.2 0.1 0 0.1 0-0.1 0.1-0.2 0.2-0.1 0-0.1 0z"/><path class="u" d="m90.9 33.8q0.1 0.1 0.2 0.2 0 0 0 0.1-0.1-0.1-0.2-0.2 0-0.1 0-0.1z"/><path class="v" d="m44.1 33.9q-0.1 0.1-0.2 0.2 0 0 0-0.1 0-0.1 0.1-0.2 0.1 0.1 0.1 0.1z"/><path class="t" d="m90.7 43.6q0 0 0 0 0 0 0 0 0 0 0 0z"/><path class="s" d="m44.6 43.8q0.1 0.1-0.1 0.1 0-0.1 0.1-0.1z"/><path class="w" d="m90.4 43.8q0 0 0.1 0.1-0.1 0-0.1-0.1z"/><path class="f" d="m90.9 33.8q0 0 0 0.1 0 0 0-0.1 0 0 0 0 0 0 0 0z"/><path class="w" d="m44.1 33.9q0 0 0-0.1 0 0 0 0 0 0 0 0 0 0.1 0 0.1z"/><path class="x" d="m49.7 39.8c0-0.4 0-0.6 0-1 0.3 0 0.5 0 0.7 0.1 0.3 0 0.4 0.2 0.4 0.4q0 0.5-0.4 0.5-0.3 0-0.7 0z"/><path class="y" d="m49.7 37.5q0 0 0 0c0.2-0.2 0.7-0.1 0.9 0 0.1 0.2 0.1 0.3 0.1 0.5q-0.1 0.2-0.3 0.3-0.3 0-0.7 0 0-0.4 0-0.8z"/></svg>